<svg width="18" height="18" viewBox="0 0 18 18" fill="none" xmlns="http://www.w3.org/2000/svg">
<path d="M11.6663 15.3125V13.8542C11.6663 13.0806 11.3591 12.3388 10.8121 11.7918C10.2651 11.2448 9.52322 10.9375 8.74967 10.9375H4.37467C3.60113 10.9375 2.85926 11.2448 2.31228 11.7918C1.7653 12.3388 1.45801 13.0806 1.45801 13.8542V15.3125" stroke="#364153" stroke-width="1.45833" stroke-linecap="round" stroke-linejoin="round"/>
<path d="M11.667 2.28088C12.2924 2.44303 12.8463 2.80826 13.2418 3.31926C13.6372 3.83026 13.8517 4.45809 13.8517 5.10422C13.8517 5.75034 13.6372 6.37817 13.2418 6.88917C12.8463 7.40017 12.2924 7.76541 11.667 7.92755" stroke="#364153" stroke-width="1.45833" stroke-linecap="round" stroke-linejoin="round"/>
<path d="M16.042 15.3126V13.8542C16.0415 13.208 15.8264 12.5802 15.4305 12.0695C15.0346 11.5587 14.4802 11.1939 13.8545 11.0323" stroke="#364153" stroke-width="1.45833" stroke-linecap="round" stroke-linejoin="round"/>
<path d="M6.56217 8.02083C8.17301 8.02083 9.47884 6.715 9.47884 5.10417C9.47884 3.49334 8.17301 2.1875 6.56217 2.1875C4.95134 2.1875 3.64551 3.49334 3.64551 5.10417C3.64551 6.715 4.95134 8.02083 6.56217 8.02083Z" stroke="#364153" stroke-width="1.45833" stroke-linecap="round" stroke-linejoin="round"/>
</svg>
