<svg width="16" height="16" viewBox="0 0 16 16" fill="none" xmlns="http://www.w3.org/2000/svg">
<g clip-path="url(#clip0_4088_395)">
<path d="M1.37467 8.22995C1.31912 8.0803 1.31912 7.9157 1.37467 7.76606C1.91567 6.45428 2.83399 5.33268 4.0132 4.54344C5.19242 3.75421 6.57943 3.33289 7.99838 3.33289C9.41734 3.33289 10.8043 3.75421 11.9836 4.54344C13.1628 5.33268 14.0811 6.45428 14.6221 7.76606C14.6776 7.9157 14.6776 8.0803 14.6221 8.22995C14.0811 9.54172 13.1628 10.6633 11.9836 11.4526C10.8043 12.2418 9.41734 12.6631 7.99838 12.6631C6.57943 12.6631 5.19242 12.2418 4.0132 11.4526C2.83399 10.6633 1.91567 9.54172 1.37467 8.22995Z" stroke="#155DFC" stroke-width="1.33301" stroke-linecap="round" stroke-linejoin="round"/>
<path d="M7.99756 9.99756C9.10186 9.99756 9.99707 9.10235 9.99707 7.99805C9.99707 6.89375 9.10186 5.99854 7.99756 5.99854C6.89326 5.99854 5.99805 6.89375 5.99805 7.99805C5.99805 9.10235 6.89326 9.99756 7.99756 9.99756Z" stroke="#155DFC" stroke-width="1.33301" stroke-linecap="round" stroke-linejoin="round"/>
</g>
<defs>
<clipPath id="clip0_4088_395">
<rect width="15.9961" height="15.9961" fill="white"/>
</clipPath>
</defs>
</svg>
