<svg width="16" height="16" viewBox="0 0 16 16" fill="none" xmlns="http://www.w3.org/2000/svg">
<g clip-path="url(#clip0_4088_549)">
<path d="M9.99756 1.33301H3.99902C3.64549 1.33301 3.30643 1.47345 3.05644 1.72344C2.80646 1.97342 2.66602 2.31248 2.66602 2.66602V13.3301C2.66602 13.6836 2.80646 14.0227 3.05644 14.2727C3.30643 14.5226 3.64549 14.6631 3.99902 14.6631H11.9971C12.3506 14.6631 12.6897 14.5226 12.9396 14.2727C13.1896 14.0227 13.3301 13.6836 13.3301 13.3301V4.66553L9.99756 1.33301Z" stroke="#64748B" stroke-width="1.33301" stroke-linecap="round" stroke-linejoin="round"/>
<path d="M9.33105 1.33301V3.99902C9.33105 4.35256 9.4715 4.69161 9.72148 4.9416C9.97147 5.19159 10.3105 5.33203 10.6641 5.33203H13.3301" stroke="#64748B" stroke-width="1.33301" stroke-linecap="round" stroke-linejoin="round"/>
<path d="M6.66504 5.99854H5.33203" stroke="#64748B" stroke-width="1.33301" stroke-linecap="round" stroke-linejoin="round"/>
<path d="M10.6641 8.66455H5.33203" stroke="#64748B" stroke-width="1.33301" stroke-linecap="round" stroke-linejoin="round"/>
<path d="M10.6641 11.3306H5.33203" stroke="#64748B" stroke-width="1.33301" stroke-linecap="round" stroke-linejoin="round"/>
</g>
<defs>
<clipPath id="clip0_4088_549">
<rect width="15.9961" height="15.9961" fill="white"/>
</clipPath>
</defs>
</svg>
