<svg width="48" height="48" viewBox="0 0 48 48" fill="none" xmlns="http://www.w3.org/2000/svg">
<path d="M18 40H8C6.93913 40 5.92172 39.5786 5.17157 38.8284C4.42143 38.0783 4 37.0609 4 36V9.99999C4 8.93913 4.42143 7.92171 5.17157 7.17157C5.92172 6.42142 6.93913 5.99999 8 5.99999H15.8C16.469 5.99344 17.1289 6.15477 17.7194 6.46923C18.3099 6.7837 18.8121 7.24124 19.18 7.79999L20.8 10.2C21.1642 10.7531 21.6601 11.207 22.243 11.5212C22.826 11.8354 23.4778 11.9999 24.14 12H40C41.0609 12 42.0783 12.4214 42.8284 13.1716C43.5786 13.9217 44 14.9391 44 16V17M24 20V28M24 28H32M24 28L27.07 24.79C28.2181 23.6866 29.6131 22.8733 31.1389 22.4178C32.6647 21.9623 34.2772 21.8778 35.8423 22.1712C37.4073 22.4647 38.8797 23.1276 40.1369 24.1049C41.394 25.0822 42.3996 26.3456 43.07 27.79M44 44V36M44 36H36M44 36L40.93 39.21C39.7819 40.3134 38.3869 41.1267 36.8611 41.5822C35.3353 42.0377 33.7228 42.1222 32.1577 41.8287C30.5927 41.5353 29.1203 40.8723 27.8631 39.895C26.606 38.9177 25.6004 37.6543 24.93 36.21" stroke="white" stroke-width="4" stroke-linecap="round" stroke-linejoin="round"/>
</svg>
