<svg width="56" height="56" viewBox="0 0 56 56" fill="none" xmlns="http://www.w3.org/2000/svg">
<path d="M42 18.6667C45.866 18.6667 49 15.5327 49 11.6667C49 7.80069 45.866 4.66669 42 4.66669C38.134 4.66669 35 7.80069 35 11.6667C35 15.5327 38.134 18.6667 42 18.6667Z" stroke="white" stroke-width="5" stroke-linecap="round" stroke-linejoin="round"/>
<path d="M14 35C17.866 35 21 31.866 21 28C21 24.134 17.866 21 14 21C10.134 21 7 24.134 7 28C7 31.866 10.134 35 14 35Z" stroke="white" stroke-width="5" stroke-linecap="round" stroke-linejoin="round"/>
<path d="M42 51.3333C45.866 51.3333 49 48.1993 49 44.3333C49 40.4673 45.866 37.3333 42 37.3333C38.134 37.3333 35 40.4673 35 44.3333C35 48.1993 38.134 51.3333 42 51.3333Z" stroke="white" stroke-width="5" stroke-linecap="round" stroke-linejoin="round"/>
<path d="M20.0433 31.5233L35.98 40.81" stroke="white" stroke-width="5" stroke-linecap="round" stroke-linejoin="round"/>
<path d="M35.9567 15.19L20.0433 24.4767" stroke="white" stroke-width="5" stroke-linecap="round" stroke-linejoin="round"/>
</svg>
