<svg width="24" height="24" viewBox="0 0 24 24" fill="none" xmlns="http://www.w3.org/2000/svg">
<path d="M15.8839 2.4375H19.7677C21.5876 2.4375 23.0625 3.92475 23.0625 5.75925V17.121C23.0625 18.9551 21.5876 20.4428 19.7677 20.4428H15.9476C14.8864 20.4428 13.8307 20.6756 12.9101 21.096L12 22.0163L11.9333 21.9488L11.8661 21.8813L11.1435 21.1335C10.1765 20.6785 9.12105 20.4425 8.05237 20.4424H4.23225C2.41237 20.4424 0.9375 18.9548 0.9375 17.1206V5.75925C0.9375 3.92475 2.41237 2.4375 4.23225 2.4375H8.11613C9.65475 2.4375 11.0865 3.168 12 4.39988C12.4486 3.79159 13.0337 3.29713 13.7083 2.95629C14.3829 2.61545 15.1281 2.43775 15.8839 2.4375ZM15.9506 18.3623H19.8068C20.5695 18.3623 21.1875 17.748 21.1875 16.9901V5.68425C21.1875 4.92675 20.5695 4.3125 19.8068 4.3125H15.8865C14.2575 4.3125 12.9375 5.625 12.9375 7.24388V18.8595C13.908 18.5302 14.9258 18.3622 15.9506 18.3623ZM11.0625 7.2435C11.0625 5.625 9.7425 4.3125 8.1135 4.3125H4.19325C3.4305 4.3125 2.8125 4.92675 2.8125 5.68425V16.9905C2.8125 17.748 3.4305 18.3623 4.19325 18.3623H8.04938C9.07537 18.3623 10.0931 18.5303 11.0625 18.8595V7.24388V7.2435Z" fill="#1E293B"/>
</svg>
