<svg width="18" height="18" viewBox="0 0 18 18" fill="none" xmlns="http://www.w3.org/2000/svg">
<path d="M11.6668 15.3125V13.8542C11.6668 13.0806 11.3595 12.3388 10.8126 11.7918C10.2656 11.2448 9.52371 10.9375 8.75016 10.9375H4.37516C3.60161 10.9375 2.85975 11.2448 2.31277 11.7918C1.76579 12.3388 1.4585 13.0806 1.4585 13.8542V15.3125" stroke="#364153" stroke-width="1.45833" stroke-linecap="round" stroke-linejoin="round"/>
<path d="M11.6665 2.28088C12.292 2.44303 12.8459 2.80826 13.2413 3.31926C13.6367 3.83026 13.8512 4.45809 13.8512 5.10422C13.8512 5.75034 13.6367 6.37817 13.2413 6.88917C12.8459 7.40017 12.292 7.76541 11.6665 7.92755" stroke="#364153" stroke-width="1.45833" stroke-linecap="round" stroke-linejoin="round"/>
<path d="M16.0415 15.3126V13.8542C16.041 13.208 15.8259 12.5802 15.43 12.0695C15.0341 11.5587 14.4797 11.1939 13.854 11.0323" stroke="#364153" stroke-width="1.45833" stroke-linecap="round" stroke-linejoin="round"/>
<path d="M6.56266 8.02083C8.17349 8.02083 9.47933 6.715 9.47933 5.10417C9.47933 3.49334 8.17349 2.1875 6.56266 2.1875C4.95183 2.1875 3.646 3.49334 3.646 5.10417C3.646 6.715 4.95183 8.02083 6.56266 8.02083Z" stroke="#364153" stroke-width="1.45833" stroke-linecap="round" stroke-linejoin="round"/>
</svg>
