<svg width="18" height="18" viewBox="0 0 18 18" fill="none" xmlns="http://www.w3.org/2000/svg">
<path d="M6.5625 2.1875H2.91667C2.51396 2.1875 2.1875 2.51396 2.1875 2.91667V8.02083C2.1875 8.42354 2.51396 8.75 2.91667 8.75H6.5625C6.96521 8.75 7.29167 8.42354 7.29167 8.02083V2.91667C7.29167 2.51396 6.96521 2.1875 6.5625 2.1875Z" stroke="white" stroke-width="1.45833" stroke-linecap="round" stroke-linejoin="round"/>
<path d="M14.5833 2.1875H10.9375C10.5348 2.1875 10.2083 2.51396 10.2083 2.91667V5.10417C10.2083 5.50687 10.5348 5.83333 10.9375 5.83333H14.5833C14.986 5.83333 15.3125 5.50687 15.3125 5.10417V2.91667C15.3125 2.51396 14.986 2.1875 14.5833 2.1875Z" stroke="white" stroke-width="1.45833" stroke-linecap="round" stroke-linejoin="round"/>
<path d="M14.5833 8.75H10.9375C10.5348 8.75 10.2083 9.07646 10.2083 9.47917V14.5833C10.2083 14.986 10.5348 15.3125 10.9375 15.3125H14.5833C14.986 15.3125 15.3125 14.986 15.3125 14.5833V9.47917C15.3125 9.07646 14.986 8.75 14.5833 8.75Z" stroke="white" stroke-width="1.45833" stroke-linecap="round" stroke-linejoin="round"/>
<path d="M6.5625 11.6666H2.91667C2.51396 11.6666 2.1875 11.9931 2.1875 12.3958V14.5833C2.1875 14.986 2.51396 15.3125 2.91667 15.3125H6.5625C6.96521 15.3125 7.29167 14.986 7.29167 14.5833V12.3958C7.29167 11.9931 6.96521 11.6666 6.5625 11.6666Z" stroke="white" stroke-width="1.45833" stroke-linecap="round" stroke-linejoin="round"/>
</svg>
