<svg width="18" height="18" viewBox="0 0 18 18" fill="none" xmlns="http://www.w3.org/2000/svg">
<path d="M11.6667 15.3125V13.8542C11.6667 13.0806 11.3594 12.3388 10.8124 11.7918C10.2654 11.2448 9.52355 10.9375 8.75 10.9375H4.375C3.60145 10.9375 2.85959 11.2448 2.3126 11.7918C1.76562 12.3388 1.45833 13.0806 1.45833 13.8542V15.3125" stroke="#364153" stroke-width="1.45833" stroke-linecap="round" stroke-linejoin="round"/>
<path d="M11.6667 2.28088C12.2921 2.44303 12.846 2.80826 13.2414 3.31926C13.6369 3.83026 13.8514 4.45809 13.8514 5.10422C13.8514 5.75034 13.6369 6.37817 13.2414 6.88917C12.846 7.40017 12.2921 7.76541 11.6667 7.92755" stroke="#364153" stroke-width="1.45833" stroke-linecap="round" stroke-linejoin="round"/>
<path d="M16.0417 15.3126V13.8542C16.0412 13.208 15.8261 12.5802 15.4302 12.0695C15.0342 11.5587 14.4799 11.1939 13.8542 11.0323" stroke="#364153" stroke-width="1.45833" stroke-linecap="round" stroke-linejoin="round"/>
<path d="M6.5625 8.02083C8.17333 8.02083 9.47917 6.715 9.47917 5.10417C9.47917 3.49334 8.17333 2.1875 6.5625 2.1875C4.95167 2.1875 3.64583 3.49334 3.64583 5.10417C3.64583 6.715 4.95167 8.02083 6.5625 8.02083Z" stroke="#364153" stroke-width="1.45833" stroke-linecap="round" stroke-linejoin="round"/>
</svg>
