<svg width="18" height="18" viewBox="0 0 18 18" fill="none" xmlns="http://www.w3.org/2000/svg">
<path d="M11.6667 15.3125V13.8542C11.6667 13.0806 11.3594 12.3388 10.8124 11.7918C10.2655 11.2448 9.52359 10.9375 8.75004 10.9375H4.37504C3.60149 10.9375 2.85963 11.2448 2.31265 11.7918C1.76566 12.3388 1.45837 13.0806 1.45837 13.8542V15.3125" stroke="#364153" stroke-width="1.45833" stroke-linecap="round" stroke-linejoin="round"/>
<path d="M11.6666 2.28084C12.2921 2.44298 12.846 2.80822 13.2414 3.31922C13.6368 3.83022 13.8514 4.45805 13.8514 5.10417C13.8514 5.75029 13.6368 6.37813 13.2414 6.88913C12.846 7.40012 12.2921 7.76536 11.6666 7.9275" stroke="#364153" stroke-width="1.45833" stroke-linecap="round" stroke-linejoin="round"/>
<path d="M16.0416 15.3125V13.8542C16.0411 13.2079 15.8261 12.5801 15.4301 12.0694C15.0342 11.5586 14.4798 11.1938 13.8541 11.0323" stroke="#364153" stroke-width="1.45833" stroke-linecap="round" stroke-linejoin="round"/>
<path d="M6.56254 8.02083C8.17337 8.02083 9.47921 6.715 9.47921 5.10417C9.47921 3.49334 8.17337 2.1875 6.56254 2.1875C4.95171 2.1875 3.64587 3.49334 3.64587 5.10417C3.64587 6.715 4.95171 8.02083 6.56254 8.02083Z" stroke="#364153" stroke-width="1.45833" stroke-linecap="round" stroke-linejoin="round"/>
</svg>
