<svg width="16" height="16" viewBox="0 0 16 16" fill="none" xmlns="http://www.w3.org/2000/svg">
<path d="M11.3333 2.66663H9.99992C9.63173 2.66663 9.33325 2.9651 9.33325 3.33329V12.6666C9.33325 13.0348 9.63173 13.3333 9.99992 13.3333H11.3333C11.7014 13.3333 11.9999 13.0348 11.9999 12.6666V3.33329C11.9999 2.9651 11.7014 2.66663 11.3333 2.66663Z" stroke="#64748B" stroke-width="1.33333" stroke-linecap="round" stroke-linejoin="round"/>
<path d="M6 2.66663H4.66667C4.29848 2.66663 4 2.9651 4 3.33329V12.6666C4 13.0348 4.29848 13.3333 4.66667 13.3333H6C6.36819 13.3333 6.66667 13.0348 6.66667 12.6666V3.33329C6.66667 2.9651 6.36819 2.66663 6 2.66663Z" stroke="#64748B" stroke-width="1.33333" stroke-linecap="round" stroke-linejoin="round"/>
</svg>
